<svg viewBox="0 0 144 144" xmlns="http://www.w3.org/2000/svg"><defs><style>.cls-1{isolation:isolate;}.cls-2{fill:#fff;}.cls-3{fill:#a5d8d2;}.cls-4{fill:#99d3cc;mix-blend-mode:multiply;}.cls-5{fill:#5d4f9b;}</style></defs><g class="cls-1"><g id="Layer_1"><circle r="12" cy="58.5" cx="119.82" class="cls-2"></circle><path d="M119.82,71.5a13.27,13.27,0,0,1-3.66-.52,1,1,0,0,1,.56-1.92,11.12,11.12,0,0,0,3.63.43,1,1,0,0,1,.09,2Zm4.46-.85a1,1,0,0,1-.93-.63,1,1,0,0,1,.56-1.3,11.15,11.15,0,0,0,3.11-1.9,1,1,0,0,1,1.31,1.51,12.84,12.84,0,0,1-3.68,2.24A1,1,0,0,1,124.28,70.65Zm-11.42-1.37a1,1,0,0,1-.58-.19,13,13,0,0,1-3-3,1,1,0,0,1,1.63-1.16,10.9,10.9,0,0,0,2.58,2.58,1,1,0,0,1-.58,1.82Zm17.35-3.78a1,1,0,0,1-.49-.13,1,1,0,0,1-.37-1.37,11,11,0,0,0,1.28-3.41,1,1,0,0,1,1.17-.8,1,1,0,0,1,.79,1.17,12.65,12.65,0,0,1-1.51,4A1,1,0,0,1,130.21,65.5ZM108.3,62.88a1,1,0,0,1-1-.72,13,13,0,0,1,.18-7.91,1,1,0,0,1,1.28-.62,1,1,0,0,1,.61,1.27,11.12,11.12,0,0,0-.16,6.7,1,1,0,0,1-.67,1.24A1,1,0,0,1,108.3,62.88Zm23.4-5.09a1,1,0,0,1-1-.85,10.65,10.65,0,0,0-1.11-3.48,1,1,0,0,1,1.78-.92,12.74,12.74,0,0,1,1.31,4.11,1,1,0,0,1-.85,1.13Zm-21.31-5.71a1,1,0,0,1-.79-1.62,13.34,13.34,0,0,1,3.19-2.9,1,1,0,0,1,1.39.3,1,1,0,0,1-.3,1.38,11.09,11.09,0,0,0-2.7,2.46A1,1,0,0,1,110.39,52.08Zm17.71-1.26a1,1,0,0,1-.68-.28,11.09,11.09,0,0,0-3-2,1,1,0,0,1-.49-1.32,1,1,0,0,1,1.33-.5,13.27,13.27,0,0,1,3.56,2.42,1,1,0,0,1,0,1.42A1,1,0,0,1,128.1,50.82Zm-11.11-3a1,1,0,0,1-.23-2,13.54,13.54,0,0,1,4.3-.3,1,1,0,0,1-.19,2,11.16,11.16,0,0,0-3.64.26Z" class="cls-3"></path><path d="M49,33.19,16.34,55.46a3.54,3.54,0,0,0,0,5.85L49,83.58a3.53,3.53,0,0,0,4,0L85.66,61.31a3.54,3.54,0,0,0,0-5.85L53,33.19A3.53,3.53,0,0,0,49,33.19Z" class="cls-4"></path><path d="M117.55,60.37c.06-.07.11-.12.16-.19a3.79,3.79,0,0,0,.2-.34c0-.06.07-.12.1-.19a3.12,3.12,0,0,0,.15-.43,1.42,1.42,0,0,1,0-.16,3.29,3.29,0,0,0,0-1.25.88.88,0,0,1,0-.15,3.26,3.26,0,0,0-.15-.44c0-.06-.07-.12-.1-.19l-.2-.34-.16-.18a3.33,3.33,0,0,0-.25-.28.46.46,0,0,1-.07-.07L104.19,45a3,3,0,1,0-3.9,4.56l6.87,5.88H86.09a3,3,0,0,0,0,6h21.07l-6.87,5.87a3,3,0,0,0-.33,4.23,3,3,0,0,0,4.23.33l13-11.15a.27.27,0,0,1,.07-.08Z" class="cls-5"></path><circle r="12" cy="117" cx="51" class="cls-2"></circle><path d="M52.71,129.88a1,1,0,0,1-.14-2A10.92,10.92,0,0,0,56,126.78a1,1,0,0,1,.92,1.78,13,13,0,0,1-4.11,1.31Zm-4-.09-.19,0a12.89,12.89,0,0,1-4-1.51,1,1,0,0,1-.37-1.37,1,1,0,0,1,1.37-.36,10.94,10.94,0,0,0,3.42,1.27,1,1,0,0,1-.19,2Zm11-3.51A1,1,0,0,1,59,126a1,1,0,0,1,0-1.42,10.9,10.9,0,0,0,2-3,1,1,0,0,1,1.82.83A13.16,13.16,0,0,1,60.41,126,1,1,0,0,1,59.68,126.28Zm-17.75-.42a1,1,0,0,1-.76-.35,13,13,0,0,1-2.24-3.68,1,1,0,1,1,1.85-.74,11.1,11.1,0,0,0,1.91,3.11,1,1,0,0,1-.11,1.41A1,1,0,0,1,41.93,125.86Zm21-6.72h-.1a1,1,0,0,1-.9-1.09c0-.35,0-.7,0-1a10.67,10.67,0,0,0-.31-2.59,1,1,0,1,1,2-.47A13.07,13.07,0,0,1,64,117q0,.63-.06,1.23A1,1,0,0,1,63,119.14ZM39,118.57a1,1,0,0,1-1-.95c0-.21,0-.41,0-.62a13.21,13.21,0,0,1,.52-3.66,1,1,0,0,1,1.92.56A11.16,11.16,0,0,0,40,117c0,.18,0,.35,0,.52a1,1,0,0,1-.95,1Zm22.09-7.06a1,1,0,0,1-.84-.46,11.09,11.09,0,0,0-2.46-2.7,1,1,0,0,1-.17-1.4,1,1,0,0,1,1.41-.17,13.15,13.15,0,0,1,2.9,3.19,1,1,0,0,1-.84,1.54ZM41.22,111a1,1,0,0,1-.58-.19,1,1,0,0,1-.23-1.39,13,13,0,0,1,3.05-3,1,1,0,0,1,1.39.23,1,1,0,0,1-.23,1.4A10.9,10.9,0,0,0,42,110.62,1,1,0,0,1,41.22,111Zm13.71-4.38a1,1,0,0,1-.33-.06,11.18,11.18,0,0,0-6.7-.16,1,1,0,0,1-.56-1.92,13.1,13.1,0,0,1,7.91.19,1,1,0,0,1-.32,2Z" class="cls-3"></path><path d="M64.17,97.14a3,3,0,0,0-4.23.32l-5.88,6.87V83.27a3,3,0,1,0-6,0v21.06l-5.87-6.87a3,3,0,0,0-4.56,3.91l11.16,13,.07.08.28.25.18.16.34.2.19.1a3.66,3.66,0,0,0,.43.15l.16,0a2.56,2.56,0,0,0,.62.07,2.59,2.59,0,0,0,.63-.07l.16,0a3.66,3.66,0,0,0,.43-.15l.19-.1.34-.2.18-.16.28-.25.07-.08,11.16-13A3,3,0,0,0,64.17,97.14Z" class="cls-5"></path><path d="M64.17,23.14a3,3,0,0,0-4.23.32l-5.88,6.87V9.27a3,3,0,1,0-6,0V30.33l-5.87-6.87a3,3,0,0,0-4.56,3.91l11.16,13,.07.08.28.25.18.16.34.2.19.1a3.66,3.66,0,0,0,.43.15l.16,0a2.56,2.56,0,0,0,.62.07,2.59,2.59,0,0,0,.63-.07l.16,0a3.66,3.66,0,0,0,.43-.15l.19-.1.34-.2.18-.16.28-.25.07-.08,11.16-13A3,3,0,0,0,64.17,23.14Z" class="cls-5"></path></g></g></svg>